Coordinates
version=1
nRows=8
nColumns=33
inDegrees=yes

Units are S.I. units (second, meters, Newtons, ...)
Angles are in degrees.

endheader
time	ground_thorax_rot_x	ground_thorax_rot_y	ground_thorax_rot_z	ground_thorax_tx	ground_thorax_ty	ground_thorax_tz	clav_prot_r	clav_elev_r	scapula_abduction_r	scapula_elevation_r	scapula_upward_rot_r	scapula_winging_r	shoulder_elv_r	plane_of_elev_r	axial_rot_r	elbow_flexion_r	pro_sup_r	wrist_flex_r	wrist_dev_r	clav_prot_l	clav_elev_l	scapula_abduction_l	scapula_elevation_l	scapula_upward_rot_l	scapula_winging_l	shoulder_elv_l	plane_of_elev_l	axial_rot_l	elbow_flexion_l	pro_sup_l	wrist_flex_l	wrist_dev_l
      4.62000000	    -39.20986314	     -7.54206842	     14.14095512	   -179.97716131	    824.96527908	      4.54235253	      7.56235936	    -45.00000000	     39.35748820	    -45.00000000	    -45.00000000	  -1174.55266262	  -1182.78299693	    141.59162581	    179.99999979	   1092.23146606	     55.67798065	     24.94822265	      9.94603305	     17.11946314	     39.82229558	    -41.18507385	    -45.00000000	    -39.82611573	   -636.35239310	  -2807.89071553	     26.26172062	    -26.41490804	    370.73599744	      9.92574867	      6.23293790	    -20.09875869
      4.63000000	    -39.20300174	     -7.36845576	     13.92226861	   -182.12135434	    826.24904447	      4.45211225	      7.53830260	    -45.00000000	     39.39318694	    -45.00000000	    -45.00000000	  -1174.73492637	  -1182.62761220	    141.60701587	    179.99999979	   1092.26930447	     55.46755649	     24.93546813	      9.89950554	     17.00307746	     39.78823895	    -41.10659013	    -45.00000000	    -39.76012271	   -636.20731528	  -2807.89640284	     26.20608344	    -26.86561693	    370.63757717	      9.38227965	      6.24336673	    -20.07031645
      4.64000000	    -39.17611749	     -7.36983161	     13.99880389	   -184.22063295	    827.51082742	      4.36564846	      7.43428823	    -45.00000000	     39.46716869	    -45.00000000	    -44.87151220	  -1174.77563272	  -1182.65248572	    142.03276175	    179.99999979	   1092.30755933	     55.30239217	     24.84263160	      9.81796527	     16.88567600	     40.25750645	    -40.97906313	    -45.00000000	    -39.76469916	   -636.08714670	  -2807.73723063	     26.03164689	    -27.25840075	    370.81615778	      8.91798463	      6.39897874	    -20.12277677
      4.65000000	    -39.23573792	     -7.03494125	     13.57889610	   -186.27739036	    828.74931671	      4.28406763	      7.35584987	    -45.00000000	     39.50801070	    -45.00000000	    -44.74130885	  -1174.88806317	  -1182.50408471	    141.96492179	    179.99999979	   1092.35313307	     55.15437652	     24.83929543	      9.72956149	     16.71197500	     40.28041685	    -40.76500909	    -45.00000000	    -39.38563326	   -635.98369197	  -2807.61398119	     25.96082835	    -27.61691252	    370.92201062	      8.47059137	      6.49599514	    -20.16237314
      4.66000000	    -39.20322255	     -6.89542394	     13.43836770	   -188.28938372	    829.96088560	      4.20830758	      7.47837669	    -45.00000000	     39.35363036	    -45.00000000	    -45.00000000	  -1175.19155633	  -1182.37050212	    141.70655345	    179.99999979	   1092.36924116	     55.04709257	     24.85272861	      9.67938949	     16.65406686	     39.90571905	    -40.76214601	    -45.00000000	    -39.36433659	   -635.86683271	  -2807.64717214	     25.92195028	    -27.53513644	    370.71315346	      7.94024691	      6.43232809	    -20.10143519
      4.67000000	    -39.16457723	     -6.89765794	     13.49008645	   -190.25409440	    831.14277413	      4.13838145	      7.44045133	    -45.00000000	     39.41865703	    -45.00000000	    -45.00000000	  -1175.28256307	  -1182.34578787	    142.01268904	    179.99999979	   1092.43623429	     54.95977278	     24.78717239	      9.56946564	     16.51460523	     40.21175831	    -40.71450512	    -45.00000000	    -39.38145422	   -635.71837476	  -2807.62562193	     25.68334886	    -28.10855105	    370.86099800	      7.50453396	      6.51307934	    -20.13532586
      4.68000000	    -39.17813247	     -6.60069803	     13.16963622	   -192.17839118	    832.29893995	      4.07334227	      7.52544047	    -45.00000000	     39.37573908	    -45.00000000	    -45.00000000	  -1175.51542305	  -1182.18198000	    141.74375670	    179.99999979	   1092.32978358	     54.93468945	     24.82259509	      9.56281555	     16.47915942	     39.80055748	    -40.63926474	    -45.00000000	    -39.39660756	   -635.67972422	  -2807.56453243	     25.77556370	    -28.08544711	    370.60676366	      6.95670330	      6.47276085	    -20.06587475
      4.69000000	    -39.15247436	     -6.52367285	     13.14048599	   -194.05953135	    833.42804311	      4.01182575	      7.50083579	    -45.00000000	     39.38441940	    -45.00000000	    -45.00000000	  -1175.65894357	  -1182.16542874	    141.93506038	    179.99999979	   1092.45931514	     54.91048529	     24.80190657	      9.44854645	     16.35117506	     39.98518997	    -40.55855849	    -45.00000000	    -39.23917582	   -635.56914821	  -2807.55891128	     25.55225542	    -28.34040370	    370.74680015	      6.48099213	      6.55439970	    -20.09795225
